<svg id="Layer_1" data-name="Layer 1" xmlns="http://www.w3.org/2000/svg" viewBox="0 0 172.78 117.62"><defs><style>.cls-1{fill:#42210b;}</style></defs><path class="cls-1" d="M454.73,596.39a6.77,6.77,0,0,1-4,1.63,13.05,13.05,0,0,1-4.4-.37,26.74,26.74,0,0,1-8-3.68c-1.24-.78-2.4-1.68-3.53-2.55s-2.18-1.59-3.32-2.3a34.8,34.8,0,0,0-7.15-3.44,21.7,21.7,0,0,0-7.42-1.3,11.42,11.42,0,0,0-6.43,2,12.39,12.39,0,0,0-4.05,5.38,26.63,26.63,0,0,0-1.73,7.34c-.15,1.28-.19,2.64-.26,4s-.06,2.67,0,4a73,73,0,0,0,.69,8.06A86.32,86.32,0,0,0,409,631a74.92,74.92,0,0,0,6.89,14.88,51.13,51.13,0,0,0,10.71,12.69,41.1,41.1,0,0,1-13.2-10.92,62.82,62.82,0,0,1-8.91-14.9,74,74,0,0,1-5-16.72,63.33,63.33,0,0,1-.64-17.62,30.14,30.14,0,0,1,2.3-9,17.32,17.32,0,0,1,6.31-7.68,16.17,16.17,0,0,1,9.6-2.49,25.32,25.32,0,0,1,9,2.19,36.13,36.13,0,0,1,7.67,4.6,36.79,36.79,0,0,1,3.33,2.9c1,1,2,1.91,3,2.8a27.17,27.17,0,0,0,6.78,4.44,12.43,12.43,0,0,0,3.89,1A6.7,6.7,0,0,0,454.73,596.39Z" transform="translate(-358.45 -579.19)"/><path class="cls-1" d="M438.55,587.81a13.44,13.44,0,0,0,5.09,3.91,9.8,9.8,0,0,0,5.95.57,14.93,14.93,0,0,0,5.44-2.6c.42-.29.82-.63,1.23-.94l1.19-1a34.63,34.63,0,0,1,2.77-2.23,27.87,27.87,0,0,1,6.35-3.35,19.35,19.35,0,0,1,7.48-1.24,12.58,12.58,0,0,1,7.75,3,14,14,0,0,1,4.29,7,26.12,26.12,0,0,1,1,7.33,49.41,49.41,0,0,1-.41,7,48.58,48.58,0,0,1-3.76,13.41,41.8,41.8,0,0,1-7.55,11.56,31.35,31.35,0,0,1-11.07,7.79,44.83,44.83,0,0,0,14.14-21.1,54.13,54.13,0,0,0,2.52-12.29,52,52,0,0,0,.18-6.24,23.12,23.12,0,0,0-.74-5.78,10.3,10.3,0,0,0-1-2.4,6.87,6.87,0,0,0-1.43-1.86,7.39,7.39,0,0,0-4.33-1.87,13.14,13.14,0,0,0-2.74,0,22.52,22.52,0,0,0-2.86.49,26.65,26.65,0,0,0-5.66,2.18,29.45,29.45,0,0,0-2.67,1.55l-1.44,1c-.51.3-1,.62-1.52.9a16.61,16.61,0,0,1-6.83,2.17,11.27,11.27,0,0,1-3.62-.29,11.53,11.53,0,0,1-3.26-1.44,12.07,12.07,0,0,1-2.61-2.26A12.27,12.27,0,0,1,438.55,587.81Z" transform="translate(-358.45 -579.19)"/><path class="cls-1" d="M430.49,593.49a43.8,43.8,0,0,0-8.07-1.64,11.75,11.75,0,0,0-7.15,1.28,8.75,8.75,0,0,0-2.56,2.41,16.31,16.31,0,0,0-1.74,3.38,55,55,0,0,0-2.13,8,20.76,20.76,0,0,1-.14-8.64,14.2,14.2,0,0,1,1.63-4.27,10.14,10.14,0,0,1,3.38-3.42,10.38,10.38,0,0,1,4.56-1.44,14.23,14.23,0,0,1,4.54.4A19,19,0,0,1,430.49,593.49Z" transform="translate(-358.45 -579.19)"/><path class="cls-1" d="M374.12,679l2.57,1.85a1.35,1.35,0,0,1-.76.39V690a3.79,3.79,0,0,1-2.61.67v-1.52h-1.06v6.93c0,.17-.78.72-2.13.72h-.47v-7.65h-1.05v1.16c0,.05-.38,1-2.56,1v-4.4c-.69.47-1.58,1-2.72,1.71v5.13c0,1.63-.36,2.85-3,3.07,0-1.75-.3-2.31-1.73-2.54V694h2c.17,0,.23-.08.23-.27V690l-.78.4a.82.82,0,0,1-.59.51l-.95-3.21,2.32-.28v-4h-2.23l-.07-.3h2.3v-4.39l3.3.28c0,.25-.11.4-.74.5v3.41l.93-1.53,1.79,1.69V679.2l2.7,1.07h4.38Zm-10.79,4.45V687c.88-.12,1.81-.27,2.72-.42v-3.38a1.19,1.19,0,0,1-.84.19Zm6.33-2.85h-1.05v4h1.05Zm-1.05,8.26h1.05v-4h-1.05Zm4.71-8.26h-1.06v4h1.06Zm-1.06,8.26h1.06v-4h-1.06Z" transform="translate(-358.45 -579.19)"/><path class="cls-1" d="M392.84,693.2l2.87,2.07c-.16.21-.4.27-.95.27h-17l-.09-.3h6.9V678.75l3.66.36c0,.24-.21.4-.72.47v6.48h2.43l1.54-2,2.81,2.05c-.15.21-.45.26-1,.26h-5.81v8.88h3.78Z" transform="translate(-358.45 -579.19)"/><path class="cls-1" d="M401.83,680.15a1.66,1.66,0,0,1,1.5-.72c1.25,0,2.83.7,2.83,1.42a1,1,0,0,1-.19.54,1.88,1.88,0,0,0-.25.85c-.06.42-.1.93-.13,1.24.6,0,1.8-.1,2.31-.16a1.11,1.11,0,0,0,.69-.3c.25-.25.49-.55.87-.55a4.9,4.9,0,0,1,2.4,1.84c0,.27-.12.36-.48.53a.69.69,0,0,0-.47.42c-1.37,5.74-4.6,9.22-10.6,10.7l-.19-.31a13.64,13.64,0,0,0,8.2-11.17.75.75,0,0,1,0-.11c0-.1-.06-.12-.25-.12-1.4.06-4.57.38-5.49.54a6.33,6.33,0,0,1-1.23.15,2.28,2.28,0,0,1-.95-.19c0,.36.42,3.32.42,4,0,.87-.27,1.22-1,1.22-.87,0-1.41-1.33-1.54-2.17a1.83,1.83,0,0,0,.17-1,12.5,12.5,0,0,0-.4-2.62c-.21-.55-.34-.91-1-1.14l0-.08a1.79,1.79,0,0,1,1.1-.32,3,3,0,0,1,2.05,1,1,1,0,0,0,.42.11c.49,0,1.65,0,2.68-.09a14.12,14.12,0,0,0-.08-2.34c-.07-.57-.17-1.14-1.35-1Z" transform="translate(-358.45 -579.19)"/><path class="cls-1" d="M412.87,691.91a28.46,28.46,0,0,0,9.08-7,1,1,0,0,0,.19-.59c0-.29-.46-.46-.82-.47,0-.06,0-.44.95-.44a3.44,3.44,0,0,1,2.47,2c0,.25-.29.33-.53.4a1.21,1.21,0,0,0-.5.36,24.44,24.44,0,0,1-3,2.57,1.46,1.46,0,0,1,.61.87,3.73,3.73,0,0,1-.15.65,10.07,10.07,0,0,0,0,1.63v1.63c0,.65.07,1,.07,1.43,0,1-.22,1.39-1,1.39s-1.09-1-1.22-2.11a10,10,0,0,0,.34-3.1c0-.42,0-1-.05-1.46A24.65,24.65,0,0,1,413,692.2Z" transform="translate(-358.45 -579.19)"/><path class="cls-1" d="M426.74,695c5-3,8.74-7.94,9.95-12.25a.15.15,0,0,0,0-.08c0-.08-.06-.11-.21-.11a35.73,35.73,0,0,0-4.08.72,2,2,0,0,0-.86.34,1.32,1.32,0,0,1-.66.32,2.76,2.76,0,0,1-2.17-2.47,1.28,1.28,0,0,1,.65-1.06c.17,1.35,1.59,1.35,2.39,1.35,1.33,0,3.57-.17,4.83-.32a1,1,0,0,0,.7-.35c.36-.36.45-.49.76-.49.55,0,2.54,1.5,2.54,1.94,0,.26-.24.4-.6.53a.82.82,0,0,0-.5.44,26.48,26.48,0,0,1-3.07,5.13,14,14,0,0,1,4.69,2.48,3.41,3.41,0,0,1,1.29,2.4,1.54,1.54,0,0,1-1.58,1.59c-.74,0-1.12-.47-1.54-1.52a10.38,10.38,0,0,0-3.28-4.44,20.5,20.5,0,0,1-9.12,6.12Z" transform="translate(-358.45 -579.19)"/><path class="cls-1" d="M445.19,684.52c.32,1,1.17,1.27,2.66,1.27s6.64-.53,8.26-.78a2.61,2.61,0,0,0,1.63-.66c1.77.46,2.81,1,2.81,1.82,0,.54-.49.65-1.27.65s-1.56-.11-2.51-.17c-.32,0-.72,0-1.16,0s-1.06,0-1.5,0c.4.23.74.59.74.81,0,.42-.34.48-.41.73-1,3.45-2.66,6.3-7,7.9l-.19-.23a12.1,12.1,0,0,0,4.49-8.43.72.72,0,0,0-.19-.55,26.37,26.37,0,0,0-3,.51c-.7.21-.91.55-1.73.55a3.11,3.11,0,0,1-2.09-2.53,1.19,1.19,0,0,1,.46-.93Zm2.29-3.87a3.81,3.81,0,0,0,2.28.51c1.18,0,4.24-.34,5.34-1.18,1.16.13,2.51.76,2.51,1.62,0,.64-1.2.72-2.19.72-1.74,0-4.23.6-5.49.6a2.45,2.45,0,0,1-2.52-2.2Z" transform="translate(-358.45 -579.19)"/><path class="cls-1" d="M466.48,688.62c0,1.22-.41,1.77-1.12,1.77s-1.46-1.2-1.46-2.2c0-.36.19-1,.25-1.54s.09-2,.09-2.19a3.9,3.9,0,0,0-.28-1.67,1.85,1.85,0,0,0-1.18-.87l0-.1a1.66,1.66,0,0,1,1.29-.55c1,0,2.78.76,2.78,1.81a3.29,3.29,0,0,1-.19.57,3.3,3.3,0,0,0-.16,1.18Zm2.89-8.09a1.66,1.66,0,0,1,1.41-.72c1.31,0,3.17,1.12,3.17,1.84,0,.25-.19.38-.3.59a1.34,1.34,0,0,0-.16.63c0,.55,0,.78,0,1.44v2.32c0,4.71-2.26,8-8.64,9.31l-.15-.29a9.54,9.54,0,0,0,6.25-9.27v-3c0-1.06,0-2.83-1.54-2.79Z" transform="translate(-358.45 -579.19)"/><path class="cls-1" d="M487.12,686.33a20.73,20.73,0,0,0,1.94-4.3c0-.09-.1-.11-.2-.11s-6.55.45-8.14,1.18c-.44.2-.75.6-1.28.6a2.92,2.92,0,0,1-2.28-2.39,1.39,1.39,0,0,1,.55-1.29l.12,0c.23.89.81,1.17,1.78,1.17s6.67-.17,8.93-.38a1.11,1.11,0,0,0,1-.37c.25-.23.53-.46.72-.46.61,0,2.68,2,2.68,2.51s-.45.43-.85.55a2.24,2.24,0,0,0-.9.57,19.22,19.22,0,0,1-3.89,2.85ZM482,684.75a1.56,1.56,0,0,1,1.59-.86c1.1,0,2.93.86,2.93,1.54a.68.68,0,0,1-.19.44,2.55,2.55,0,0,0-.42.84,12.69,12.69,0,0,1-7.24,9.38l-.21-.25a15.8,15.8,0,0,0,4.88-10.12c0-.27,0-.93-1-.93a1.88,1.88,0,0,0-.36,0Z" transform="translate(-358.45 -579.19)"/><path class="cls-1" d="M509.37,682.3l2.62,1.82c-.14.21-.38.27-.93.27H494l-.09-.31h2.93v-4.27l3.21.3c0,.25-.19.36-.69.44v3.53h2.19v-5.35l3.45.32c0,.25-.2.38-.7.46v1.72h2.07l1.31-1.65,2.42,1.69c-.14.23-.42.27-.92.27h-4.88v2.54h3.59ZM507.75,689v-3.58l3.34.29c0,.26-.19.42-.74.49v9.92s-.43.7-2.6.7v-1.57H498v.87s-.45.7-2.56.7v-11.4l3.21.29c0,.23-.15.36-.65.44v7.58a10.09,10.09,0,0,0,2.8-4.37h-2.63l-.09-.31h3.55v-4l3.12.26c0,.27-.19.42-.74.5V689h.87l1-1.27ZM498,694.93h9.71v-2.54h0a1.17,1.17,0,0,1-1.12,1.08,1.35,1.35,0,0,1-.82-.34,6.56,6.56,0,0,0-1.74-2.93v3.67s-.4.61-2.38.61v-2.74a12.19,12.19,0,0,1-3.53,2.24l-.1-.21Zm.86-9.33c1.92.46,2.56,1.24,2.56,1.9a1.17,1.17,0,0,1-1.16,1.11,1.14,1.14,0,0,1-.91-.5,4.37,4.37,0,0,0-.64-2.41Zm8.85,3.63a1.35,1.35,0,0,1-.72.12h-3V690c2.64.27,3.59,1.26,3.68,2.11h0Zm-.21-2.54c-.07.19-.25.28-.72.22-.55.48-1.77,1.26-2.49,1.77l-.17-.17c.3-.85.72-2.28.91-3Z" transform="translate(-358.45 -579.19)"/><path class="cls-1" d="M518.26,685.15v2c2.22.65,3,1.64,3,2.45a1.39,1.39,0,0,1-1.35,1.37,1.28,1.28,0,0,1-1.06-.59,3.39,3.39,0,0,0,0-.45,5.51,5.51,0,0,0-.57-2.44v8.59a2.82,2.82,0,0,1-2.17.74h-.49v-6a15.5,15.5,0,0,1-2.62,2.75l-.23-.22a24,24,0,0,0,2.64-8.19H513l-.08-.31h2.72v-2.77c-1,.15-1.92.29-2.81.4l0-.17a52.58,52.58,0,0,0,5.64-3.57l3,2.48a.92.92,0,0,1-.63.2,2.54,2.54,0,0,1-.8-.14c-.49.12-1.06.23-1.69.34v3.23h.07l1.13-1.67,2,1.71c-.13.21-.42.27-.91.27ZM529.33,688l1.9,1.55c-.07.18-.22.31-.6.36l-2.15.4v5.51c0,.27-1.16.91-2.15.91h-.51v-5.92l-5.4,1-.11-.28,5.51-1V678.73l3.38.32c0,.27-.17.42-.72.49v10.3Zm-8.18-2.23c3,0,4,1.07,4,2a1.52,1.52,0,0,1-1.48,1.46,1.48,1.48,0,0,1-1-.46,4.47,4.47,0,0,0-1.54-2.88Zm.51-5c2.83.23,3.78,1.27,3.78,2.18a1.49,1.49,0,0,1-1.46,1.45,1.46,1.46,0,0,1-1.07-.5,4.58,4.58,0,0,0-1.36-3Z" transform="translate(-358.45 -579.19)"/></svg>