<svg xmlns="http://www.w3.org/2000/svg" viewBox="0 0 88.57 79.36"><defs><style>.cls-1{fill:#42210b;}</style></defs><g id="Layer_2" data-name="Layer 2"><g id="Layer_1-2" data-name="Layer 1"><path class="cls-1" d="M56.25,17.2a6.89,6.89,0,0,1-4,1.63,13.06,13.06,0,0,1-4.4-.38,26.66,26.66,0,0,1-8-3.68c-1.23-.77-2.4-1.68-3.53-2.54s-2.18-1.6-3.31-2.31a35.14,35.14,0,0,0-7.16-3.44,21.65,21.65,0,0,0-7.42-1.29,11.26,11.26,0,0,0-6.42,1.95A12.26,12.26,0,0,0,8,12.52a26.92,26.92,0,0,0-1.74,7.33c-.14,1.28-.19,2.64-.26,4s0,2.68,0,4a75.57,75.57,0,0,0,.7,8.06,86.59,86.59,0,0,0,3.77,15.87,75.67,75.67,0,0,0,6.89,14.87,51.36,51.36,0,0,0,10.71,12.7A41,41,0,0,1,14.87,68.43,63.19,63.19,0,0,1,6,53.53,75,75,0,0,1,1,36.81,63.24,63.24,0,0,1,.34,19.2a30.46,30.46,0,0,1,2.31-9A17.32,17.32,0,0,1,9,2.5,16.27,16.27,0,0,1,18.56,0a25.27,25.27,0,0,1,9,2.19A35.84,35.84,0,0,1,35.25,6.8a38.56,38.56,0,0,1,3.34,2.9c1,1,2,1.91,3,2.8a26.84,26.84,0,0,0,6.77,4.44,12.3,12.3,0,0,0,3.89,1A6.81,6.81,0,0,0,56.25,17.2Z"/><path class="cls-1" d="M40.06,8.61a13.65,13.65,0,0,0,5.09,3.92,9.82,9.82,0,0,0,6,.56,15,15,0,0,0,5.43-2.59c.42-.29.82-.63,1.23-.94L59,8.51a30.81,30.81,0,0,1,2.76-2.22,27.79,27.79,0,0,1,6.36-3.36,19.52,19.52,0,0,1,7.47-1.24,12.72,12.72,0,0,1,7.76,3,14.16,14.16,0,0,1,4.29,7,26.61,26.61,0,0,1,1,7.34,51,51,0,0,1-.41,7,48.61,48.61,0,0,1-3.76,13.4A41.46,41.46,0,0,1,76.84,50.9a31.17,31.17,0,0,1-11.07,7.79,44.75,44.75,0,0,0,14.15-21.1,53.91,53.91,0,0,0,2.51-12.28,52.2,52.2,0,0,0,.19-6.25,23,23,0,0,0-.74-5.77,10.14,10.14,0,0,0-1-2.4A6.58,6.58,0,0,0,79.47,9a7.39,7.39,0,0,0-4.33-1.87,13.06,13.06,0,0,0-2.73,0,22.57,22.57,0,0,0-2.86.5,27.24,27.24,0,0,0-5.67,2.17,29.54,29.54,0,0,0-2.67,1.56l-1.43,1c-.51.3-1,.63-1.53.91a16.66,16.66,0,0,1-6.83,2.17,11.29,11.29,0,0,1-3.62-.3,10.93,10.93,0,0,1-3.25-1.44,11.79,11.79,0,0,1-2.61-2.25A12.38,12.38,0,0,1,40.06,8.61Z"/></g></g></svg>